<svg width="20" height="20" viewBox="0 0 20 20" fill="none" xmlns="http://www.w3.org/2000/svg">
<path d="M13.4221 5.30751L18.7806 16.0276C19.4632 17.3932 18.4704 19 16.9441 19H13.4221M13.4221 5.30751L11.8365 2.13535C11.0798 0.621548 8.92018 0.62155 8.1635 2.13535L1.21942 16.0276C0.536808 17.3932 1.52955 19 3.05592 19H6.57789M13.4221 5.30751L10 8.73064M6.57789 19H13.4221M6.57789 19L3.15577 15.5769M13.4221 19L6.57789 12.1538M10 8.73064L18.7264 17.4596M10 8.73064L6.57789 12.1538M1.27361 17.4596L3.15577 15.5769M3.15577 15.5769L6.57789 12.1538" stroke="#686B6E" stroke-width="1.5" stroke-linecap="round" stroke-linejoin="round"/>
</svg>
