<svg width="18" height="18" viewBox="0 0 18 18" fill="none" xmlns="http://www.w3.org/2000/svg">
<path d="M1.5 12.3333V14.8333C1.5 15.7538 2.24619 16.5 3.16667 16.5H14.8333C15.7538 16.5 16.5 15.7538 16.5 14.8333V12.3333M1.5 12.3333V3.16667C1.5 2.24619 2.24619 1.5 3.16667 1.5H14.8333C15.7538 1.5 16.5 2.24619 16.5 3.16667V12.3333M1.5 12.3333L5.32149 8.51184C5.97236 7.86097 7.02764 7.86097 7.67851 8.51184L10.6667 11.5M13.1667 14L10.6667 11.5M10.6667 11.5L11.9882 10.1785C12.639 9.52764 13.6943 9.52764 14.3452 10.1785L16.5 12.3333M14 5.25C14 5.94036 13.4404 6.5 12.75 6.5C12.0596 6.5 11.5 5.94036 11.5 5.25C11.5 4.55964 12.0596 4 12.75 4C13.4404 4 14 4.55964 14 5.25Z" stroke="#B6F09C" stroke-width="1.5" stroke-linecap="round" stroke-linejoin="round"/>
</svg>
