<svg width="42" height="42" viewBox="0 0 42 42" fill="none" xmlns="http://www.w3.org/2000/svg">
<path d="M28.6047 10.5723L40.5124 34.3947C42.0293 37.4294 39.8232 41 36.4313 41H28.6047M28.6047 10.5723L25.0811 3.52301C23.3996 0.158997 18.6004 0.158999 16.9189 3.52301L1.4876 34.3947C-0.0293145 37.4294 2.17679 41 5.5687 41H13.3953M28.6047 10.5723L21 18.1792M13.3953 41H28.6047M13.3953 41L5.79061 33.3931M28.6047 41L13.3953 25.7861M21 18.1792L40.392 37.5769M21 18.1792L13.3953 25.7861M1.60803 37.5769L5.79061 33.3931M5.79061 33.3931L13.3953 25.7861" stroke="white" stroke-width="2" stroke-linecap="round" stroke-linejoin="round"/>
</svg>
